{
    "asset" : {
        "generator" : "Khronos glTF Blender I/O v1.3.48",
        "version" : "2.0"
    },
    "scene" : 0,
    "scenes" : [
        {
            "name" : "Scene",
            "nodes" : [
                1
            ]
        }
    ],
    "nodes" : [
        {
            "mesh" : 0,
            "name" : "Dollar",
            "scale" : [
                0.5,
                0.11750373989343643,
                0.18348242342472076
            ],
            "translation" : [
                0,
                0,
                -0.9313095808029175
            ]
        },
        {
            "children" : [
                0
            ],
            "mesh" : 1,
            "name" : "Brick_usd ",
            "rotation" : [
                0.5000000596046448,
                0.49999991059303284,
                -0.5000000596046448,
                0.4999999403953552
            ],
            "scale" : [
                0.20805440843105316,
                0.39876899123191833,
                0.20831939578056335
            ],
            "translation" : [
                -0.21288186311721802,
                0.16416549682617188,
                0
            ]
        }
    ],
    "materials" : [
        {
            "doubleSided" : true,
            "emissiveFactor" : [
                0,
                0,
                0
            ],
            "name" : "Reward_Gold_m 2.001",
            "pbrMetallicRoughness" : {
                "baseColorFactor" : [
                    1,
                    1,
                    0,
                    1
                ],
                "metallicFactor" : 1,
                "roughnessFactor" : 0.5527864098548889
            }
        },
        {
            "doubleSided" : true,
            "emissiveFactor" : [
                0,
                0,
                0
            ],
            "name" : "High1.001",
            "pbrMetallicRoughness" : {
                "baseColorFactor" : [
                    0.20353683829307556,
                    0.6980000138282776,
                    0.1682180017232895,
                    1
                ],
                "metallicFactor" : 0.30177515745162964,
                "roughnessFactor" : 0.6556457281112671
            }
        }
    ],
    "meshes" : [
        {
            "name" : "\u7f51\u683c.004",
            "primitives" : [
                {
                    "attributes" : {
                        "POSITION" : 0,
                        "NORMAL" : 1,
                        "TEXCOORD_0" : 2
                    },
                    "indices" : 3,
                    "material" : 0
                }
            ]
        },
        {
            "name" : "\u7f51\u683c.003",
            "primitives" : [
                {
                    "attributes" : {
                        "POSITION" : 4,
                        "NORMAL" : 5,
                        "TEXCOORD_0" : 6
                    },
                    "indices" : 7,
                    "material" : 1
                }
            ]
        }
    ],
    "accessors" : [
        {
            "bufferView" : 0,
            "componentType" : 5126,
            "count" : 450,
            "max" : [
                0.09370683133602142,
                1.0821160078048706,
                1.924875020980835
            ],
            "min" : [
                -0.09370683133602142,
                -1.0821160078048706,
                -1.924875020980835
            ],
            "type" : "VEC3"
        },
        {
            "bufferView" : 1,
            "componentType" : 5126,
            "count" : 450,
            "type" : "VEC3"
        },
        {
            "bufferView" : 2,
            "componentType" : 5126,
            "count" : 450,
            "type" : "VEC2"
        },
        {
            "bufferView" : 3,
            "componentType" : 5123,
            "count" : 1248,
            "type" : "SCALAR"
        },
        {
            "bufferView" : 4,
            "componentType" : 5126,
            "count" : 24,
            "max" : [
                0.5,
                0.5,
                0.5
            ],
            "min" : [
                -0.5,
                -0.5,
                -0.5
            ],
            "type" : "VEC3"
        },
        {
            "bufferView" : 5,
            "componentType" : 5126,
            "count" : 24,
            "type" : "VEC3"
        },
        {
            "bufferView" : 6,
            "componentType" : 5126,
            "count" : 24,
            "type" : "VEC2"
        },
        {
            "bufferView" : 7,
            "componentType" : 5123,
            "count" : 36,
            "type" : "SCALAR"
        }
    ],
    "bufferViews" : [
        {
            "buffer" : 0,
            "byteLength" : 5400,
            "byteOffset" : 0
        },
        {
            "buffer" : 0,
            "byteLength" : 5400,
            "byteOffset" : 5400
        },
        {
            "buffer" : 0,
            "byteLength" : 3600,
            "byteOffset" : 10800
        },
        {
            "buffer" : 0,
            "byteLength" : 2496,
            "byteOffset" : 14400
        },
        {
            "buffer" : 0,
            "byteLength" : 288,
            "byteOffset" : 16896
        },
        {
            "buffer" : 0,
            "byteLength" : 288,
            "byteOffset" : 17184
        },
        {
            "buffer" : 0,
            "byteLength" : 192,
            "byteOffset" : 17472
        },
        {
            "buffer" : 0,
            "byteLength" : 72,
            "byteOffset" : 17664
        }
    ],
    "buffers" : [
        {
            "byteLength" : 17736,
            "uri" : "data:application/octet-stream;base64,"
        }
    ]
}
