{
    "asset" : {
        "generator" : "Khronos glTF Blender I/O v1.3.48",
        "version" : "2.0"
    },
    "scene" : 0,
    "scenes" : [
        {
            "name" : "Scene",
            "nodes" : [
                0
            ]
        }
    ],
    "nodes" : [
        {
            "mesh" : 0,
            "name" : "polySurface410",
            "rotation" : [
                0.7071066498756409,
                0,
                0,
                0.70710688829422
            ],
            "scale" : [
                0.10570088773965836,
                0.10570088773965836,
                0.10570088773965836
            ],
            "translation" : [
                -3.1005859000288183e-06,
                0.19955547153949738,
                -0.033178988844156265
            ]
        }
    ],
    "materials" : [
        {
            "doubleSided" : true,
            "emissiveFactor" : [
                0,
                0,
                0
            ],
            "name" : "fort45_71",
            "pbrMetallicRoughness" : {
                "baseColorFactor" : [
                    1,
                    0.9490196704864502,
                    0.33725491166114807,
                    1
                ],
                "metallicFactor" : 1,
                "roughnessFactor" : 0.5527864098548889
            }
        },
        {
            "doubleSided" : true,
            "emissiveFactor" : [
                0,
                0,
                0
            ],
            "name" : "fort45_21",
            "pbrMetallicRoughness" : {
                "baseColorFactor" : [
                    0.22745099663734436,
                    0.615686297416687,
                    0.9490196704864502,
                    1
                ],
                "metallicFactor" : 1,
                "roughnessFactor" : 0.5527864098548889
            }
        },
        {
            "doubleSided" : true,
            "emissiveFactor" : [
                0,
                0,
                0
            ],
            "name" : "fort45_45",
            "pbrMetallicRoughness" : {
                "baseColorFactor" : [
                    0.2039216011762619,
                    0.26274511218070984,
                    0.3764705955982208,
                    1
                ],
                "metallicFactor" : 1,
                "roughnessFactor" : 0.5527864098548889
            }
        },
        {
            "doubleSided" : true,
            "emissiveFactor" : [
                0,
                0,
                0
            ],
            "name" : "fort45_68",
            "pbrMetallicRoughness" : {
                "baseColorFactor" : [
                    0.917647123336792,
                    0.2705881893634796,
                    0.19215689599514008,
                    1
                ],
                "metallicFactor" : 1,
                "roughnessFactor" : 0.5527864098548889
            }
        },
        {
            "doubleSided" : true,
            "emissiveFactor" : [
                0,
                0,
                0
            ],
            "name" : "fort45_28",
            "pbrMetallicRoughness" : {
                "baseColorFactor" : [
                    0.5058823823928833,
                    0.40392160415649414,
                    0.4000000059604645,
                    1
                ],
                "metallicFactor" : 1,
                "roughnessFactor" : 0.5527864098548889
            }
        },
        {
            "doubleSided" : true,
            "emissiveFactor" : [
                0,
                0,
                0
            ],
            "name" : "fort45_44",
            "pbrMetallicRoughness" : {
                "baseColorFactor" : [
                    0.43921568989753723,
                    0.49411770701408386,
                    0.5254902243614197,
                    1
                ],
                "metallicFactor" : 1,
                "roughnessFactor" : 0.5527864098548889
            }
        },
        {
            "doubleSided" : true,
            "emissiveFactor" : [
                0,
                0,
                0
            ],
            "name" : "fort45_30",
            "pbrMetallicRoughness" : {
                "baseColorFactor" : [
                    0.34117650985717773,
                    0.396078497171402,
                    0.4078432023525238,
                    1
                ],
                "metallicFactor" : 1,
                "roughnessFactor" : 0.5527864098548889
            }
        },
        {
            "doubleSided" : true,
            "emissiveFactor" : [
                0,
                0,
                0
            ],
            "name" : "fort45_59",
            "pbrMetallicRoughness" : {
                "baseColorFactor" : [
                    0.8000000715255737,
                    0.7568628191947937,
                    0.7803922295570374,
                    1
                ],
                "metallicFactor" : 1,
                "roughnessFactor" : 0.5527864098548889
            }
        }
    ],
    "meshes" : [
        {
            "name" : "\u7f51\u683c.002",
            "primitives" : [
                {
                    "attributes" : {
                        "POSITION" : 0,
                        "NORMAL" : 1,
                        "TEXCOORD_0" : 2
                    },
                    "indices" : 3,
                    "material" : 0
                },
                {
                    "attributes" : {
                        "POSITION" : 4,
                        "NORMAL" : 5,
                        "TEXCOORD_0" : 6
                    },
                    "indices" : 7,
                    "material" : 1
                },
                {
                    "attributes" : {
                        "POSITION" : 8,
                        "NORMAL" : 9,
                        "TEXCOORD_0" : 10
                    },
                    "indices" : 11,
                    "material" : 2
                },
                {
                    "attributes" : {
                        "POSITION" : 12,
                        "NORMAL" : 13,
                        "TEXCOORD_0" : 14
                    },
                    "indices" : 15,
                    "material" : 3
                },
                {
                    "attributes" : {
                        "POSITION" : 16,
                        "NORMAL" : 17,
                        "TEXCOORD_0" : 18
                    },
                    "indices" : 19,
                    "material" : 4
                },
                {
                    "attributes" : {
                        "POSITION" : 20,
                        "NORMAL" : 21,
                        "TEXCOORD_0" : 22
                    },
                    "indices" : 23,
                    "material" : 5
                },
                {
                    "attributes" : {
                        "POSITION" : 24,
                        "NORMAL" : 25,
                        "TEXCOORD_0" : 26
                    },
                    "indices" : 27,
                    "material" : 6
                },
                {
                    "attributes" : {
                        "POSITION" : 28,
                        "NORMAL" : 29,
                        "TEXCOORD_0" : 30
                    },
                    "indices" : 31,
                    "material" : 7
                }
            ]
        }
    ],
    "accessors" : [
        {
            "bufferView" : 0,
            "componentType" : 5126,
            "count" : 176,
            "max" : [
                1.0569696426391602,
                2.266335964202881,
                0.7570697069168091
            ],
            "min" : [
                -1.0569677352905273,
                -0.25527223944664,
                -0.3539952039718628
            ],
            "type" : "VEC3"
        },
        {
            "bufferView" : 1,
            "componentType" : 5126,
            "count" : 176,
            "type" : "VEC3"
        },
        {
            "bufferView" : 2,
            "componentType" : 5126,
            "count" : 176,
            "type" : "VEC2"
        },
        {
            "bufferView" : 3,
            "componentType" : 5123,
            "count" : 318,
            "type" : "SCALAR"
        },
        {
            "bufferView" : 4,
            "componentType" : 5126,
            "count" : 79,
            "max" : [
                0.8727598190307617,
                2.055246353149414,
                0.7570697069168091
            ],
            "min" : [
                -0.8727512359619141,
                -0.8422675132751465,
                -0.5068761110305786
            ],
            "type" : "VEC3"
        },
        {
            "bufferView" : 5,
            "componentType" : 5126,
            "count" : 79,
            "type" : "VEC3"
        },
        {
            "bufferView" : 6,
            "componentType" : 5126,
            "count" : 79,
            "type" : "VEC2"
        },
        {
            "bufferView" : 7,
            "componentType" : 5123,
            "count" : 168,
            "type" : "SCALAR"
        },
        {
            "bufferView" : 8,
            "componentType" : 5126,
            "count" : 52,
            "max" : [
                1.0593795776367188,
                1.757325291633606,
                -0.17312204837799072
            ],
            "min" : [
                -1.0593795776367188,
                0.8908143043518066,
                -0.669620156288147
            ],
            "type" : "VEC3"
        },
        {
            "bufferView" : 9,
            "componentType" : 5126,
            "count" : 52,
            "type" : "VEC3"
        },
        {
            "bufferView" : 10,
            "componentType" : 5126,
            "count" : 52,
            "type" : "VEC2"
        },
        {
            "bufferView" : 11,
            "componentType" : 5123,
            "count" : 84,
            "type" : "SCALAR"
        },
        {
            "bufferView" : 12,
            "componentType" : 5126,
            "count" : 176,
            "max" : [
                1.324559211730957,
                2.21954607963562,
                0.7570697069168091
            ],
            "min" : [
                -1.324559211730957,
                -0.28874871134757996,
                -0.7570692300796509
            ],
            "type" : "VEC3"
        },
        {
            "bufferView" : 13,
            "componentType" : 5126,
            "count" : 176,
            "type" : "VEC3"
        },
        {
            "bufferView" : 14,
            "componentType" : 5126,
            "count" : 176,
            "type" : "VEC2"
        },
        {
            "bufferView" : 15,
            "componentType" : 5123,
            "count" : 378,
            "type" : "SCALAR"
        },
        {
            "bufferView" : 16,
            "componentType" : 5126,
            "count" : 72,
            "max" : [
                1.3108196258544922,
                0.4119262397289276,
                -0.4159020185470581
            ],
            "min" : [
                -1.3108205795288086,
                -0.35385170578956604,
                -0.6607941389083862
            ],
            "type" : "VEC3"
        },
        {
            "bufferView" : 17,
            "componentType" : 5126,
            "count" : 72,
            "type" : "VEC3"
        },
        {
            "bufferView" : 18,
            "componentType" : 5126,
            "count" : 72,
            "type" : "VEC2"
        },
        {
            "bufferView" : 19,
            "componentType" : 5123,
            "count" : 120,
            "type" : "SCALAR"
        },
        {
            "bufferView" : 20,
            "componentType" : 5126,
            "count" : 84,
            "max" : [
                0.2932615280151367,
                -0.6021276712417603,
                0.55033278465271
            ],
            "min" : [
                -0.2932615280151367,
                -1.5903645753860474,
                -0.036193132400512695
            ],
            "type" : "VEC3"
        },
        {
            "bufferView" : 21,
            "componentType" : 5126,
            "count" : 84,
            "type" : "VEC3"
        },
        {
            "bufferView" : 22,
            "componentType" : 5126,
            "count" : 84,
            "type" : "VEC2"
        },
        {
            "bufferView" : 23,
            "componentType" : 5123,
            "count" : 138,
            "type" : "SCALAR"
        },
        {
            "bufferView" : 24,
            "componentType" : 5126,
            "count" : 32,
            "max" : [
                0.4252748191356659,
                -0.6021276712417603,
                0.3206099271774292
            ],
            "min" : [
                -0.42527294158935547,
                -1.1836986541748047,
                0.19352984428405762
            ],
            "type" : "VEC3"
        },
        {
            "bufferView" : 25,
            "componentType" : 5126,
            "count" : 32,
            "type" : "VEC3"
        },
        {
            "bufferView" : 26,
            "componentType" : 5126,
            "count" : 32,
            "type" : "VEC2"
        },
        {
            "bufferView" : 27,
            "componentType" : 5123,
            "count" : 48,
            "type" : "SCALAR"
        },
        {
            "bufferView" : 28,
            "componentType" : 5126,
            "count" : 74,
            "max" : [
                0.1888895034790039,
                -1.621085524559021,
                0.4430887699127197
            ],
            "min" : [
                -0.1888875961303711,
                -2.26633620262146,
                0.07105100154876709
            ],
            "type" : "VEC3"
        },
        {
            "bufferView" : 29,
            "componentType" : 5126,
            "count" : 74,
            "type" : "VEC3"
        },
        {
            "bufferView" : 30,
            "componentType" : 5126,
            "count" : 74,
            "type" : "VEC2"
        },
        {
            "bufferView" : 31,
            "componentType" : 5123,
            "count" : 204,
            "type" : "SCALAR"
        }
    ],
    "bufferViews" : [
        {
            "buffer" : 0,
            "byteLength" : 2112,
            "byteOffset" : 0
        },
        {
            "buffer" : 0,
            "byteLength" : 2112,
            "byteOffset" : 2112
        },
        {
            "buffer" : 0,
            "byteLength" : 1408,
            "byteOffset" : 4224
        },
        {
            "buffer" : 0,
            "byteLength" : 636,
            "byteOffset" : 5632
        },
        {
            "buffer" : 0,
            "byteLength" : 948,
            "byteOffset" : 6268
        },
        {
            "buffer" : 0,
            "byteLength" : 948,
            "byteOffset" : 7216
        },
        {
            "buffer" : 0,
            "byteLength" : 632,
            "byteOffset" : 8164
        },
        {
            "buffer" : 0,
            "byteLength" : 336,
            "byteOffset" : 8796
        },
        {
            "buffer" : 0,
            "byteLength" : 624,
            "byteOffset" : 9132
        },
        {
            "buffer" : 0,
            "byteLength" : 624,
            "byteOffset" : 9756
        },
        {
            "buffer" : 0,
            "byteLength" : 416,
            "byteOffset" : 10380
        },
        {
            "buffer" : 0,
            "byteLength" : 168,
            "byteOffset" : 10796
        },
        {
            "buffer" : 0,
            "byteLength" : 2112,
            "byteOffset" : 10964
        },
        {
            "buffer" : 0,
            "byteLength" : 2112,
            "byteOffset" : 13076
        },
        {
            "buffer" : 0,
            "byteLength" : 1408,
            "byteOffset" : 15188
        },
        {
            "buffer" : 0,
            "byteLength" : 756,
            "byteOffset" : 16596
        },
        {
            "buffer" : 0,
            "byteLength" : 864,
            "byteOffset" : 17352
        },
        {
            "buffer" : 0,
            "byteLength" : 864,
            "byteOffset" : 18216
        },
        {
            "buffer" : 0,
            "byteLength" : 576,
            "byteOffset" : 19080
        },
        {
            "buffer" : 0,
            "byteLength" : 240,
            "byteOffset" : 19656
        },
        {
            "buffer" : 0,
            "byteLength" : 1008,
            "byteOffset" : 19896
        },
        {
            "buffer" : 0,
            "byteLength" : 1008,
            "byteOffset" : 20904
        },
        {
            "buffer" : 0,
            "byteLength" : 672,
            "byteOffset" : 21912
        },
        {
            "buffer" : 0,
            "byteLength" : 276,
            "byteOffset" : 22584
        },
        {
            "buffer" : 0,
            "byteLength" : 384,
            "byteOffset" : 22860
        },
        {
            "buffer" : 0,
            "byteLength" : 384,
            "byteOffset" : 23244
        },
        {
            "buffer" : 0,
            "byteLength" : 256,
            "byteOffset" : 23628
        },
        {
            "buffer" : 0,
            "byteLength" : 96,
            "byteOffset" : 23884
        },
        {
            "buffer" : 0,
            "byteLength" : 888,
            "byteOffset" : 23980
        },
        {
            "buffer" : 0,
            "byteLength" : 888,
            "byteOffset" : 24868
        },
        {
            "buffer" : 0,
            "byteLength" : 592,
            "byteOffset" : 25756
        },
        {
            "buffer" : 0,
            "byteLength" : 408,
            "byteOffset" : 26348
        }
    ],
    "buffers" : [
        {
            "byteLength" : 26756,
            "uri" : "data:application/octet-stream;base64,"
        }
    ]
}
