{
    "asset" : {
        "generator" : "Khronos glTF Blender I/O v1.3.48",
        "version" : "2.0"
    },
    "scene" : 0,
    "scenes" : [
        {
            "name" : "Scene",
            "nodes" : [
                0
            ]
        }
    ],
    "nodes" : [
        {
            "mesh" : 0,
            "name" : "polySurface254",
            "rotation" : [
                0,
                -0.7071067094802856,
                0.7071068286895752,
                8.429368847373553e-08
            ],
            "scale" : [
                0.10999999940395355,
                0.10999999940395355,
                0.10999999940395355
            ],
            "translation" : [
                -4.650878508982714e-06,
                0.14999999105930328,
                0
            ]
        }
    ],
    "materials" : [
        {
            "doubleSided" : true,
            "emissiveFactor" : [
                0,
                0,
                0
            ],
            "name" : "fort23_27",
            "pbrMetallicRoughness" : {
                "baseColorFactor" : [
                    1,
                    0.7450981140136719,
                    0.18039220571517944,
                    1
                ],
                "metallicFactor" : 1,
                "roughnessFactor" : 0.5527864098548889
            }
        },
        {
            "doubleSided" : true,
            "emissiveFactor" : [
                0,
                0,
                0
            ],
            "name" : "fort23_28",
            "pbrMetallicRoughness" : {
                "baseColorFactor" : [
                    0.2759130001068115,
                    0.9290000200271606,
                    0.8191398978233337,
                    1
                ],
                "metallicFactor" : 1,
                "roughnessFactor" : 0.5527864098548889
            }
        },
        {
            "doubleSided" : true,
            "emissiveFactor" : [
                0,
                0,
                0
            ],
            "name" : "fort23_29",
            "pbrMetallicRoughness" : {
                "baseColorFactor" : [
                    0.058975983411073685,
                    0.6440677642822266,
                    0.7760000228881836,
                    1
                ],
                "metallicFactor" : 1,
                "roughnessFactor" : 0.5527864098548889
            }
        }
    ],
    "meshes" : [
        {
            "name" : "\u7f51\u683c.001",
            "primitives" : [
                {
                    "attributes" : {
                        "POSITION" : 0,
                        "NORMAL" : 1,
                        "TEXCOORD_0" : 2
                    },
                    "indices" : 3,
                    "material" : 0
                },
                {
                    "attributes" : {
                        "POSITION" : 4,
                        "NORMAL" : 5,
                        "TEXCOORD_0" : 6
                    },
                    "indices" : 7,
                    "material" : 1
                },
                {
                    "attributes" : {
                        "POSITION" : 8,
                        "NORMAL" : 9,
                        "TEXCOORD_0" : 10
                    },
                    "indices" : 11,
                    "material" : 2
                }
            ]
        }
    ],
    "accessors" : [
        {
            "bufferView" : 0,
            "componentType" : 5126,
            "count" : 53,
            "max" : [
                1.1440272331237793,
                1.517547845840454,
                0.2882799506187439
            ],
            "min" : [
                -1.1440300941467285,
                -1.5175443887710571,
                -0.28827965259552
            ],
            "type" : "VEC3"
        },
        {
            "bufferView" : 1,
            "componentType" : 5126,
            "count" : 53,
            "type" : "VEC3"
        },
        {
            "bufferView" : 2,
            "componentType" : 5126,
            "count" : 53,
            "type" : "VEC2"
        },
        {
            "bufferView" : 3,
            "componentType" : 5123,
            "count" : 156,
            "type" : "SCALAR"
        },
        {
            "bufferView" : 4,
            "componentType" : 5126,
            "count" : 97,
            "max" : [
                1.5429487228393555,
                1.8702472448349,
                0.2188044637441635
            ],
            "min" : [
                -1.542954444885254,
                -1.3744792938232422,
                -0.4130527675151825
            ],
            "type" : "VEC3"
        },
        {
            "bufferView" : 5,
            "componentType" : 5126,
            "count" : 97,
            "type" : "VEC3"
        },
        {
            "bufferView" : 6,
            "componentType" : 5126,
            "count" : 97,
            "type" : "VEC2"
        },
        {
            "bufferView" : 7,
            "componentType" : 5123,
            "count" : 216,
            "type" : "SCALAR"
        },
        {
            "bufferView" : 8,
            "componentType" : 5126,
            "count" : 48,
            "max" : [
                0.7411074638366699,
                1.8490689992904663,
                0.21880456805229187
            ],
            "min" : [
                -0.741112232208252,
                -1.561762809753418,
                -0.5719872117042542
            ],
            "type" : "VEC3"
        },
        {
            "bufferView" : 9,
            "componentType" : 5126,
            "count" : 48,
            "type" : "VEC3"
        },
        {
            "bufferView" : 10,
            "componentType" : 5126,
            "count" : 48,
            "type" : "VEC2"
        },
        {
            "bufferView" : 11,
            "componentType" : 5123,
            "count" : 84,
            "type" : "SCALAR"
        }
    ],
    "bufferViews" : [
        {
            "buffer" : 0,
            "byteLength" : 636,
            "byteOffset" : 0
        },
        {
            "buffer" : 0,
            "byteLength" : 636,
            "byteOffset" : 636
        },
        {
            "buffer" : 0,
            "byteLength" : 424,
            "byteOffset" : 1272
        },
        {
            "buffer" : 0,
            "byteLength" : 312,
            "byteOffset" : 1696
        },
        {
            "buffer" : 0,
            "byteLength" : 1164,
            "byteOffset" : 2008
        },
        {
            "buffer" : 0,
            "byteLength" : 1164,
            "byteOffset" : 3172
        },
        {
            "buffer" : 0,
            "byteLength" : 776,
            "byteOffset" : 4336
        },
        {
            "buffer" : 0,
            "byteLength" : 432,
            "byteOffset" : 5112
        },
        {
            "buffer" : 0,
            "byteLength" : 576,
            "byteOffset" : 5544
        },
        {
            "buffer" : 0,
            "byteLength" : 576,
            "byteOffset" : 6120
        },
        {
            "buffer" : 0,
            "byteLength" : 384,
            "byteOffset" : 6696
        },
        {
            "buffer" : 0,
            "byteLength" : 168,
            "byteOffset" : 7080
        }
    ],
    "buffers" : [
        {
            "byteLength" : 7248,
            "uri" : "data:application/octet-stream;base64,"
        }
    ]
}
