{
    "asset" : {
        "generator" : "Khronos glTF Blender I/O v1.3.48",
        "version" : "2.0"
    },
    "scene" : 0,
    "scenes" : [
        {
            "name" : "Scene",
            "nodes" : [
                0
            ]
        }
    ],
    "nodes" : [
        {
            "mesh" : 0,
            "name" : "polySurface116",
            "rotation" : [
                0,
                0.7071067094802856,
                -0.7071068286895752,
                3.793084601966257e-08
            ],
            "scale" : [
                0.10999999940395355,
                0.10999999940395355,
                0.10999999940395355
            ],
            "translation" : [
                0,
                0.14999999105930328,
                0
            ]
        }
    ],
    "materials" : [
        {
            "doubleSided" : true,
            "emissiveFactor" : [
                0,
                0,
                0
            ],
            "name" : "fort5_82",
            "pbrMetallicRoughness" : {
                "baseColorFactor" : [
                    0.4918619990348816,
                    0.578890860080719,
                    0.6859999895095825,
                    1
                ],
                "metallicFactor" : 1,
                "roughnessFactor" : 0.5527864098548889
            }
        },
        {
            "doubleSided" : true,
            "emissiveFactor" : [
                0,
                0,
                0
            ],
            "name" : "fort5_83",
            "pbrMetallicRoughness" : {
                "baseColorFactor" : [
                    0.17756801843643188,
                    0.5215631127357483,
                    0.7160000205039978,
                    1
                ],
                "metallicFactor" : 1,
                "roughnessFactor" : 0.5527864098548889
            }
        }
    ],
    "meshes" : [
        {
            "name" : "\u7f51\u683c",
            "primitives" : [
                {
                    "attributes" : {
                        "POSITION" : 0,
                        "NORMAL" : 1,
                        "TEXCOORD_0" : 2
                    },
                    "indices" : 3,
                    "material" : 0
                },
                {
                    "attributes" : {
                        "POSITION" : 4,
                        "NORMAL" : 5,
                        "TEXCOORD_0" : 6
                    },
                    "indices" : 7,
                    "material" : 1
                }
            ]
        }
    ],
    "accessors" : [
        {
            "bufferView" : 0,
            "componentType" : 5126,
            "count" : 300,
            "max" : [
                1.2917084693908691,
                1.9677667617797852,
                0.322956919670105
            ],
            "min" : [
                -1.2907633781433105,
                -0.8819503784179688,
                -0.5000001788139343
            ],
            "type" : "VEC3"
        },
        {
            "bufferView" : 1,
            "componentType" : 5126,
            "count" : 300,
            "type" : "VEC3"
        },
        {
            "bufferView" : 2,
            "componentType" : 5126,
            "count" : 300,
            "type" : "VEC2"
        },
        {
            "bufferView" : 3,
            "componentType" : 5123,
            "count" : 684,
            "type" : "SCALAR"
        },
        {
            "bufferView" : 4,
            "componentType" : 5126,
            "count" : 18,
            "max" : [
                0.7748836874961853,
                0.6834111213684082,
                -0.20552197098731995
            ],
            "min" : [
                -0.7748836874961853,
                -0.6834073066711426,
                -0.20552214980125427
            ],
            "type" : "VEC3"
        },
        {
            "bufferView" : 5,
            "componentType" : 5126,
            "count" : 18,
            "type" : "VEC3"
        },
        {
            "bufferView" : 6,
            "componentType" : 5126,
            "count" : 18,
            "type" : "VEC2"
        },
        {
            "bufferView" : 7,
            "componentType" : 5123,
            "count" : 48,
            "type" : "SCALAR"
        }
    ],
    "bufferViews" : [
        {
            "buffer" : 0,
            "byteLength" : 3600,
            "byteOffset" : 0
        },
        {
            "buffer" : 0,
            "byteLength" : 3600,
            "byteOffset" : 3600
        },
        {
            "buffer" : 0,
            "byteLength" : 2400,
            "byteOffset" : 7200
        },
        {
            "buffer" : 0,
            "byteLength" : 1368,
            "byteOffset" : 9600
        },
        {
            "buffer" : 0,
            "byteLength" : 216,
            "byteOffset" : 10968
        },
        {
            "buffer" : 0,
            "byteLength" : 216,
            "byteOffset" : 11184
        },
        {
            "buffer" : 0,
            "byteLength" : 144,
            "byteOffset" : 11400
        },
        {
            "buffer" : 0,
            "byteLength" : 96,
            "byteOffset" : 11544
        }
    ],
    "buffers" : [
        {
            "byteLength" : 11640,
            "uri" : "data:application/octet-stream;base64,"
        }
    ]
}
