{
    "asset" : {
        "generator" : "Khronos glTF Blender I/O v1.3.48",
        "version" : "2.0"
    },
    "scene" : 0,
    "scenes" : [
        {
            "name" : "Scene",
            "nodes" : [
                0
            ]
        }
    ],
    "nodes" : [
        {
            "mesh" : 0,
            "name" : "polySurface328",
            "rotation" : [
                0,
                0.7071067094802856,
                -0.7071068286895752,
                5.338507236274381e-08
            ],
            "scale" : [
                0.10999999940395355,
                0.10999999940395355,
                0.10999999940395355
            ],
            "translation" : [
                0,
                0.14999999105930328,
                0
            ]
        }
    ],
    "materials" : [
        {
            "doubleSided" : true,
            "emissiveFactor" : [
                0,
                0,
                0
            ],
            "name" : "fort50_30",
            "pbrMetallicRoughness" : {
                "baseColorFactor" : [
                    0.35144513845443726,
                    0.40799957513809204,
                    0.4201183319091797,
                    1
                ],
                "metallicFactor" : 0.4911242723464966,
                "roughnessFactor" : 0.5527864098548889
            }
        },
        {
            "doubleSided" : true,
            "emissiveFactor" : [
                0,
                0,
                0
            ],
            "name" : "fort50_70",
            "pbrMetallicRoughness" : {
                "baseColorFactor" : [
                    0.8901960849761963,
                    0.6666666865348816,
                    0.2235293984413147,
                    1
                ],
                "metallicFactor" : 1,
                "roughnessFactor" : 0.5527864098548889
            }
        },
        {
            "doubleSided" : true,
            "emissiveFactor" : [
                0,
                0,
                0
            ],
            "name" : "fort50_69",
            "pbrMetallicRoughness" : {
                "baseColorFactor" : [
                    0,
                    1,
                    1,
                    1
                ],
                "metallicFactor" : 1,
                "roughnessFactor" : 0.5527864098548889
            }
        },
        {
            "doubleSided" : true,
            "emissiveFactor" : [
                0,
                0,
                0
            ],
            "name" : "fort50_68",
            "pbrMetallicRoughness" : {
                "baseColorFactor" : [
                    0.917647123336792,
                    0.2705881893634796,
                    0.19215689599514008,
                    1
                ],
                "metallicFactor" : 1,
                "roughnessFactor" : 0.5527864098548889
            }
        },
        {
            "doubleSided" : true,
            "emissiveFactor" : [
                0,
                0,
                0
            ],
            "name" : "fort50_72",
            "pbrMetallicRoughness" : {
                "baseColorFactor" : [
                    0.4352942109107971,
                    0.5098040103912354,
                    0.5882353186607361,
                    1
                ],
                "metallicFactor" : 1,
                "roughnessFactor" : 0.5527864098548889
            }
        },
        {
            "doubleSided" : true,
            "emissiveFactor" : [
                0,
                0,
                0
            ],
            "name" : "fort50_71",
            "pbrMetallicRoughness" : {
                "baseColorFactor" : [
                    1,
                    0.9490196704864502,
                    0.33725491166114807,
                    1
                ],
                "metallicFactor" : 1,
                "roughnessFactor" : 0.5527864098548889
            }
        }
    ],
    "meshes" : [
        {
            "name" : "\u7f51\u683c.002",
            "primitives" : [
                {
                    "attributes" : {
                        "POSITION" : 0,
                        "NORMAL" : 1,
                        "TEXCOORD_0" : 2
                    },
                    "indices" : 3,
                    "material" : 0
                },
                {
                    "attributes" : {
                        "POSITION" : 4,
                        "NORMAL" : 5,
                        "TEXCOORD_0" : 6
                    },
                    "indices" : 7,
                    "material" : 1
                },
                {
                    "attributes" : {
                        "POSITION" : 8,
                        "NORMAL" : 9,
                        "TEXCOORD_0" : 10
                    },
                    "indices" : 11,
                    "material" : 2
                },
                {
                    "attributes" : {
                        "POSITION" : 12,
                        "NORMAL" : 13,
                        "TEXCOORD_0" : 14
                    },
                    "indices" : 15,
                    "material" : 3
                },
                {
                    "attributes" : {
                        "POSITION" : 16,
                        "NORMAL" : 17,
                        "TEXCOORD_0" : 18
                    },
                    "indices" : 19,
                    "material" : 4
                },
                {
                    "attributes" : {
                        "POSITION" : 20,
                        "NORMAL" : 21,
                        "TEXCOORD_0" : 22
                    },
                    "indices" : 23,
                    "material" : 5
                }
            ]
        }
    ],
    "accessors" : [
        {
            "bufferView" : 0,
            "componentType" : 5126,
            "count" : 130,
            "max" : [
                1.1317272186279297,
                2.7842752933502197,
                0.5000007748603821
            ],
            "min" : [
                -1.1317310333251953,
                -1.357922911643982,
                -0.500001072883606
            ],
            "type" : "VEC3"
        },
        {
            "bufferView" : 1,
            "componentType" : 5126,
            "count" : 130,
            "type" : "VEC3"
        },
        {
            "bufferView" : 2,
            "componentType" : 5126,
            "count" : 130,
            "type" : "VEC2"
        },
        {
            "bufferView" : 3,
            "componentType" : 5123,
            "count" : 306,
            "type" : "SCALAR"
        },
        {
            "bufferView" : 4,
            "componentType" : 5126,
            "count" : 60,
            "max" : [
                1.1877899169921875,
                -0.3749930262565613,
                -0.05053183436393738
            ],
            "min" : [
                -1.1877927780151367,
                -1.2382125854492188,
                -0.4494703710079193
            ],
            "type" : "VEC3"
        },
        {
            "bufferView" : 5,
            "componentType" : 5126,
            "count" : 60,
            "type" : "VEC3"
        },
        {
            "bufferView" : 6,
            "componentType" : 5126,
            "count" : 60,
            "type" : "VEC2"
        },
        {
            "bufferView" : 7,
            "componentType" : 5123,
            "count" : 96,
            "type" : "SCALAR"
        },
        {
            "bufferView" : 8,
            "componentType" : 5126,
            "count" : 136,
            "max" : [
                2.0646986961364746,
                0.17542748153209686,
                0.3887192904949188
            ],
            "min" : [
                -2.0647010803222656,
                -1.7392226457595825,
                -0.050532709807157516
            ],
            "type" : "VEC3"
        },
        {
            "bufferView" : 9,
            "componentType" : 5126,
            "count" : 136,
            "type" : "VEC3"
        },
        {
            "bufferView" : 10,
            "componentType" : 5126,
            "count" : 136,
            "type" : "VEC2"
        },
        {
            "bufferView" : 11,
            "componentType" : 5123,
            "count" : 240,
            "type" : "SCALAR"
        },
        {
            "bufferView" : 12,
            "componentType" : 5126,
            "count" : 184,
            "max" : [
                1.4829449653625488,
                2.330223560333252,
                0.6453706622123718
            ],
            "min" : [
                -1.4829492568969727,
                0.2684115469455719,
                -0.6453692317008972
            ],
            "type" : "VEC3"
        },
        {
            "bufferView" : 13,
            "componentType" : 5126,
            "count" : 184,
            "type" : "VEC3"
        },
        {
            "bufferView" : 14,
            "componentType" : 5126,
            "count" : 184,
            "type" : "VEC2"
        },
        {
            "bufferView" : 15,
            "componentType" : 5123,
            "count" : 360,
            "type" : "SCALAR"
        },
        {
            "bufferView" : 16,
            "componentType" : 5126,
            "count" : 38,
            "max" : [
                0.47777509689331055,
                2.113158702850342,
                0.47051969170570374
            ],
            "min" : [
                -0.47777843475341797,
                0.8655697703361511,
                -0.47051873803138733
            ],
            "type" : "VEC3"
        },
        {
            "bufferView" : 17,
            "componentType" : 5126,
            "count" : 38,
            "type" : "VEC3"
        },
        {
            "bufferView" : 18,
            "componentType" : 5126,
            "count" : 38,
            "type" : "VEC2"
        },
        {
            "bufferView" : 19,
            "componentType" : 5123,
            "count" : 108,
            "type" : "SCALAR"
        },
        {
            "bufferView" : 20,
            "componentType" : 5126,
            "count" : 118,
            "max" : [
                0.903353214263916,
                2.00144624710083,
                0.1471559703350067
            ],
            "min" : [
                -0.9033565521240234,
                -0.7518128156661987,
                -0.6820412874221802
            ],
            "type" : "VEC3"
        },
        {
            "bufferView" : 21,
            "componentType" : 5126,
            "count" : 118,
            "type" : "VEC3"
        },
        {
            "bufferView" : 22,
            "componentType" : 5126,
            "count" : 118,
            "type" : "VEC2"
        },
        {
            "bufferView" : 23,
            "componentType" : 5123,
            "count" : 180,
            "type" : "SCALAR"
        }
    ],
    "bufferViews" : [
        {
            "buffer" : 0,
            "byteLength" : 1560,
            "byteOffset" : 0
        },
        {
            "buffer" : 0,
            "byteLength" : 1560,
            "byteOffset" : 1560
        },
        {
            "buffer" : 0,
            "byteLength" : 1040,
            "byteOffset" : 3120
        },
        {
            "buffer" : 0,
            "byteLength" : 612,
            "byteOffset" : 4160
        },
        {
            "buffer" : 0,
            "byteLength" : 720,
            "byteOffset" : 4772
        },
        {
            "buffer" : 0,
            "byteLength" : 720,
            "byteOffset" : 5492
        },
        {
            "buffer" : 0,
            "byteLength" : 480,
            "byteOffset" : 6212
        },
        {
            "buffer" : 0,
            "byteLength" : 192,
            "byteOffset" : 6692
        },
        {
            "buffer" : 0,
            "byteLength" : 1632,
            "byteOffset" : 6884
        },
        {
            "buffer" : 0,
            "byteLength" : 1632,
            "byteOffset" : 8516
        },
        {
            "buffer" : 0,
            "byteLength" : 1088,
            "byteOffset" : 10148
        },
        {
            "buffer" : 0,
            "byteLength" : 480,
            "byteOffset" : 11236
        },
        {
            "buffer" : 0,
            "byteLength" : 2208,
            "byteOffset" : 11716
        },
        {
            "buffer" : 0,
            "byteLength" : 2208,
            "byteOffset" : 13924
        },
        {
            "buffer" : 0,
            "byteLength" : 1472,
            "byteOffset" : 16132
        },
        {
            "buffer" : 0,
            "byteLength" : 720,
            "byteOffset" : 17604
        },
        {
            "buffer" : 0,
            "byteLength" : 456,
            "byteOffset" : 18324
        },
        {
            "buffer" : 0,
            "byteLength" : 456,
            "byteOffset" : 18780
        },
        {
            "buffer" : 0,
            "byteLength" : 304,
            "byteOffset" : 19236
        },
        {
            "buffer" : 0,
            "byteLength" : 216,
            "byteOffset" : 19540
        },
        {
            "buffer" : 0,
            "byteLength" : 1416,
            "byteOffset" : 19756
        },
        {
            "buffer" : 0,
            "byteLength" : 1416,
            "byteOffset" : 21172
        },
        {
            "buffer" : 0,
            "byteLength" : 944,
            "byteOffset" : 22588
        },
        {
            "buffer" : 0,
            "byteLength" : 360,
            "byteOffset" : 23532
        }
    ],
    "buffers" : [
        {
            "byteLength" : 23892,
            "uri" : "data:application/octet-stream;base64,"
        }
    ]
}
