{
    "asset" : {
        "generator" : "Khronos glTF Blender I/O v1.3.48",
        "version" : "2.0"
    },
    "scene" : 0,
    "scenes" : [
        {
            "name" : "Scene",
            "nodes" : [
                0
            ]
        }
    ],
    "nodes" : [
        {
            "mesh" : 0,
            "name" : "polySurface98",
            "rotation" : [
                0.7071067094802856,
                0,
                0,
                0.7071068286895752
            ],
            "scale" : [
                0.12459561228752136,
                0.12459561228752136,
                0.12459561228752136
            ],
            "translation" : [
                0.0013128595892339945,
                0.21587780117988586,
                -0.02900838293135166
            ]
        }
    ],
    "materials" : [
        {
            "doubleSided" : true,
            "emissiveFactor" : [
                0,
                0,
                0
            ],
            "name" : "fort20_82",
            "pbrMetallicRoughness" : {
                "baseColorFactor" : [
                    0.9372550249099731,
                    0.6431372761726379,
                    0.5529412031173706,
                    1
                ],
                "metallicFactor" : 1,
                "roughnessFactor" : 0.5527864098548889
            }
        },
        {
            "doubleSided" : true,
            "emissiveFactor" : [
                0,
                0,
                0
            ],
            "name" : "fort20_68",
            "pbrMetallicRoughness" : {
                "baseColorFactor" : [
                    0.917647123336792,
                    0.2705881893634796,
                    0.19215689599514008,
                    1
                ],
                "metallicFactor" : 1,
                "roughnessFactor" : 0.5527864098548889
            }
        },
        {
            "doubleSided" : true,
            "emissiveFactor" : [
                0,
                0,
                0
            ],
            "name" : "fort20_51",
            "pbrMetallicRoughness" : {
                "baseColorFactor" : [
                    0.9019607901573181,
                    0.8784313797950745,
                    0.41960790753364563,
                    1
                ],
                "metallicFactor" : 1,
                "roughnessFactor" : 0.5527864098548889
            }
        },
        {
            "doubleSided" : true,
            "emissiveFactor" : [
                0,
                0,
                0
            ],
            "name" : "fort20_47",
            "pbrMetallicRoughness" : {
                "baseColorFactor" : [
                    0.764706015586853,
                    0.6470587849617004,
                    0.396078497171402,
                    1
                ],
                "metallicFactor" : 1,
                "roughnessFactor" : 0.5527864098548889
            }
        },
        {
            "doubleSided" : true,
            "emissiveFactor" : [
                0,
                0,
                0
            ],
            "name" : "fort20_57",
            "pbrMetallicRoughness" : {
                "baseColorFactor" : [
                    0.7882353067398071,
                    0.597291886806488,
                    0.22937649488449097,
                    1
                ],
                "metallicFactor" : 1,
                "roughnessFactor" : 0.5527864098548889
            }
        },
        {
            "doubleSided" : true,
            "emissiveFactor" : [
                0,
                0,
                0
            ],
            "name" : "fort20_42",
            "pbrMetallicRoughness" : {
                "baseColorFactor" : [
                    0.6745098233222961,
                    0.2039216011762619,
                    0.10980390012264252,
                    1
                ],
                "metallicFactor" : 1,
                "roughnessFactor" : 0.5527864098548889
            }
        },
        {
            "doubleSided" : true,
            "emissiveFactor" : [
                0,
                0,
                0
            ],
            "name" : "fort20_23",
            "pbrMetallicRoughness" : {
                "baseColorFactor" : [
                    1,
                    0.7450981140136719,
                    0.18039220571517944,
                    1
                ],
                "metallicFactor" : 1,
                "roughnessFactor" : 0.5527864098548889
            }
        }
    ],
    "meshes" : [
        {
            "name" : "\u7f51\u683c",
            "primitives" : [
                {
                    "attributes" : {
                        "POSITION" : 0,
                        "NORMAL" : 1,
                        "TEXCOORD_0" : 2
                    },
                    "indices" : 3,
                    "material" : 0
                },
                {
                    "attributes" : {
                        "POSITION" : 4,
                        "NORMAL" : 5,
                        "TEXCOORD_0" : 6
                    },
                    "indices" : 7,
                    "material" : 1
                },
                {
                    "attributes" : {
                        "POSITION" : 8,
                        "NORMAL" : 9,
                        "TEXCOORD_0" : 10
                    },
                    "indices" : 11,
                    "material" : 2
                },
                {
                    "attributes" : {
                        "POSITION" : 12,
                        "NORMAL" : 13,
                        "TEXCOORD_0" : 14
                    },
                    "indices" : 15,
                    "material" : 3
                },
                {
                    "attributes" : {
                        "POSITION" : 16,
                        "NORMAL" : 17,
                        "TEXCOORD_0" : 18
                    },
                    "indices" : 19,
                    "material" : 4
                },
                {
                    "attributes" : {
                        "POSITION" : 20,
                        "NORMAL" : 21,
                        "TEXCOORD_0" : 22
                    },
                    "indices" : 23,
                    "material" : 5
                },
                {
                    "attributes" : {
                        "POSITION" : 24,
                        "NORMAL" : 25,
                        "TEXCOORD_0" : 26
                    },
                    "indices" : 27,
                    "material" : 6
                }
            ]
        }
    ],
    "accessors" : [
        {
            "bufferView" : 0,
            "componentType" : 5126,
            "count" : 110,
            "max" : [
                0.6414675712585449,
                0.6317222118377686,
                0.41345828771591187
            ],
            "min" : [
                -0.6414675712585449,
                -0.6317222118377686,
                -0.41345828771591187
            ],
            "type" : "VEC3"
        },
        {
            "bufferView" : 1,
            "componentType" : 5126,
            "count" : 110,
            "type" : "VEC3"
        },
        {
            "bufferView" : 2,
            "componentType" : 5126,
            "count" : 110,
            "type" : "VEC2"
        },
        {
            "bufferView" : 3,
            "componentType" : 5123,
            "count" : 324,
            "type" : "SCALAR"
        },
        {
            "bufferView" : 4,
            "componentType" : 5126,
            "count" : 18,
            "max" : [
                0.4811081886291504,
                0.47379976511001587,
                -0.2988615036010742
            ],
            "min" : [
                -0.4811081886291504,
                -0.4737996459007263,
                -0.2988615036010742
            ],
            "type" : "VEC3"
        },
        {
            "bufferView" : 5,
            "componentType" : 5126,
            "count" : 18,
            "type" : "VEC3"
        },
        {
            "bufferView" : 6,
            "componentType" : 5126,
            "count" : 18,
            "type" : "VEC2"
        },
        {
            "bufferView" : 7,
            "componentType" : 5123,
            "count" : 48,
            "type" : "SCALAR"
        },
        {
            "bufferView" : 8,
            "componentType" : 5126,
            "count" : 44,
            "max" : [
                1.347890853881836,
                1.733729362487793,
                0.23719608783721924
            ],
            "min" : [
                -1.3478913307189941,
                -0.2679786682128906,
                -0.22760725021362305
            ],
            "type" : "VEC3"
        },
        {
            "bufferView" : 9,
            "componentType" : 5126,
            "count" : 44,
            "type" : "VEC3"
        },
        {
            "bufferView" : 10,
            "componentType" : 5126,
            "count" : 44,
            "type" : "VEC2"
        },
        {
            "bufferView" : 11,
            "componentType" : 5123,
            "count" : 60,
            "type" : "SCALAR"
        },
        {
            "bufferView" : 12,
            "componentType" : 5126,
            "count" : 52,
            "max" : [
                1.1256790161132812,
                1.4899945259094238,
                0.7502526044845581
            ],
            "min" : [
                -1.1256790161132812,
                -1.2688722610473633,
                -0.05379128456115723
            ],
            "type" : "VEC3"
        },
        {
            "bufferView" : 13,
            "componentType" : 5126,
            "count" : 52,
            "type" : "VEC3"
        },
        {
            "bufferView" : 14,
            "componentType" : 5126,
            "count" : 52,
            "type" : "VEC2"
        },
        {
            "bufferView" : 15,
            "componentType" : 5123,
            "count" : 120,
            "type" : "SCALAR"
        },
        {
            "bufferView" : 16,
            "componentType" : 5126,
            "count" : 58,
            "max" : [
                0.7475619316101074,
                1.7392125129699707,
                0.6626657247543335
            ],
            "min" : [
                -0.747560977935791,
                -0.915738582611084,
                -0.3765972852706909
            ],
            "type" : "VEC3"
        },
        {
            "bufferView" : 17,
            "componentType" : 5126,
            "count" : 58,
            "type" : "VEC3"
        },
        {
            "bufferView" : 18,
            "componentType" : 5126,
            "count" : 58,
            "type" : "VEC2"
        },
        {
            "bufferView" : 19,
            "componentType" : 5123,
            "count" : 108,
            "type" : "SCALAR"
        },
        {
            "bufferView" : 20,
            "componentType" : 5126,
            "count" : 114,
            "max" : [
                0.6508116722106934,
                -0.8044662475585938,
                0.5943111181259155
            ],
            "min" : [
                -0.6508121490478516,
                -1.6313834190368652,
                0.10215067863464355
            ],
            "type" : "VEC3"
        },
        {
            "bufferView" : 21,
            "componentType" : 5126,
            "count" : 114,
            "type" : "VEC3"
        },
        {
            "bufferView" : 22,
            "componentType" : 5126,
            "count" : 114,
            "type" : "VEC2"
        },
        {
            "bufferView" : 23,
            "componentType" : 5123,
            "count" : 324,
            "type" : "SCALAR"
        },
        {
            "bufferView" : 24,
            "componentType" : 5126,
            "count" : 96,
            "max" : [
                0.7439918518066406,
                -1.6313834190368652,
                0.6912873983383179
            ],
            "min" : [
                -0.7439932823181152,
                -1.8777766227722168,
                0.0051727294921875
            ],
            "type" : "VEC3"
        },
        {
            "bufferView" : 25,
            "componentType" : 5126,
            "count" : 96,
            "type" : "VEC3"
        },
        {
            "bufferView" : 26,
            "componentType" : 5126,
            "count" : 96,
            "type" : "VEC2"
        },
        {
            "bufferView" : 27,
            "componentType" : 5123,
            "count" : 168,
            "type" : "SCALAR"
        }
    ],
    "bufferViews" : [
        {
            "buffer" : 0,
            "byteLength" : 1320,
            "byteOffset" : 0
        },
        {
            "buffer" : 0,
            "byteLength" : 1320,
            "byteOffset" : 1320
        },
        {
            "buffer" : 0,
            "byteLength" : 880,
            "byteOffset" : 2640
        },
        {
            "buffer" : 0,
            "byteLength" : 648,
            "byteOffset" : 3520
        },
        {
            "buffer" : 0,
            "byteLength" : 216,
            "byteOffset" : 4168
        },
        {
            "buffer" : 0,
            "byteLength" : 216,
            "byteOffset" : 4384
        },
        {
            "buffer" : 0,
            "byteLength" : 144,
            "byteOffset" : 4600
        },
        {
            "buffer" : 0,
            "byteLength" : 96,
            "byteOffset" : 4744
        },
        {
            "buffer" : 0,
            "byteLength" : 528,
            "byteOffset" : 4840
        },
        {
            "buffer" : 0,
            "byteLength" : 528,
            "byteOffset" : 5368
        },
        {
            "buffer" : 0,
            "byteLength" : 352,
            "byteOffset" : 5896
        },
        {
            "buffer" : 0,
            "byteLength" : 120,
            "byteOffset" : 6248
        },
        {
            "buffer" : 0,
            "byteLength" : 624,
            "byteOffset" : 6368
        },
        {
            "buffer" : 0,
            "byteLength" : 624,
            "byteOffset" : 6992
        },
        {
            "buffer" : 0,
            "byteLength" : 416,
            "byteOffset" : 7616
        },
        {
            "buffer" : 0,
            "byteLength" : 240,
            "byteOffset" : 8032
        },
        {
            "buffer" : 0,
            "byteLength" : 696,
            "byteOffset" : 8272
        },
        {
            "buffer" : 0,
            "byteLength" : 696,
            "byteOffset" : 8968
        },
        {
            "buffer" : 0,
            "byteLength" : 464,
            "byteOffset" : 9664
        },
        {
            "buffer" : 0,
            "byteLength" : 216,
            "byteOffset" : 10128
        },
        {
            "buffer" : 0,
            "byteLength" : 1368,
            "byteOffset" : 10344
        },
        {
            "buffer" : 0,
            "byteLength" : 1368,
            "byteOffset" : 11712
        },
        {
            "buffer" : 0,
            "byteLength" : 912,
            "byteOffset" : 13080
        },
        {
            "buffer" : 0,
            "byteLength" : 648,
            "byteOffset" : 13992
        },
        {
            "buffer" : 0,
            "byteLength" : 1152,
            "byteOffset" : 14640
        },
        {
            "buffer" : 0,
            "byteLength" : 1152,
            "byteOffset" : 15792
        },
        {
            "buffer" : 0,
            "byteLength" : 768,
            "byteOffset" : 16944
        },
        {
            "buffer" : 0,
            "byteLength" : 336,
            "byteOffset" : 17712
        }
    ],
    "buffers" : [
        {
            "byteLength" : 18048,
            "uri" : "data:application/octet-stream;base64,"
        }
    ]
}
